<svg width="1645" height="1857" xmlns="http://www.w3.org/2000/svg" xmlns:xlink="http://www.w3.org/1999/xlink" xml:space="preserve" overflow="hidden"><defs><clipPath id="clip0"><rect x="1377" y="309" width="1645" height="1857"/></clipPath></defs><g clip-path="url(#clip0)" transform="translate(-1377 -309)"><path d="M1584.5 309.035C1609.36 309.501 1634.64 314.678 1659.22 325.223L1669.24 329.655 1669.24 330.414 1682.21 336.934 2220.82 651.361 2220.82 651.258 2920.36 1059.38C3055.88 1138.52 3055.88 1336.35 2920.36 1415.59L1682.11 2138.14C1546.48 2217.28 1377 2118.41 1377 1960.14L1377 514.933C1377 393.455 1476.77 307.014 1584.5 309.035Z" fill="#F44A21" fill-rule="evenodd"/><path d="M1927 761 2532.23 838.33C2530.61 894.535 2568.57 897.654 2566.95 953.859L2516.04 1596.3 1927 1766 1927 761Z" fill="#F8C417" fill-rule="evenodd"/><path d="M1983.6 513 2220.95 651.483 2220.95 651.38 2920.65 1059.37C2979.95 1093.98 3013.31 1151.3 3020.72 1211.47L3022 1232.29 3020.33 1265.39 3015.96 1288.84C3003.25 1339.37 2971.48 1385.75 2920.65 1415.45L2007.5 1948 1960.02 1930.62C1685.57 1814.55 1493 1542.83 1493 1226.13 1493 909.426 1685.57 637.699 1960.02 521.629L1983.6 513ZM2257.66 838.481 2257.66 1308.7C2230.89 1293.41 2200.31 1283.85 2167.81 1283.85 2068.4 1283.85 1990.03 1364.13 1990.03 1461.61 1990.03 1561.01 2070.31 1639.38 2167.81 1639.38 2267.21 1639.38 2353.24 1559.1 2353.24 1461.61L2353.24 1029.63 2525.28 1029.63 2525.28 838.481 2257.66 838.481Z" fill="#FF8C00" fill-rule="evenodd"/></g></svg>